# xmcd
# Track frame offsets:
# 150
# 14671
# 29850
# 52870
# 67973
# 82317
# 100896
# 113188
# 125887
# 144002
# 158273
# 171720
#
# Disc length: 2455 seconds
# Revision: 0
# Processed by: cddbd v1.4PL0 Copyright (c) Steve Scherf et al.
# Submitted via: VisiTrax 2.9.5.180 - For more info visit www.synapsa.com
#
DISCID=a709950c
DTITLE=Shane Worley - Heartaches and lies
DYEAR=1900
DGENRE=
TTITLE0=You lied
TTITLE1=Angel's wings
TTITLE2=Mirrirs don't lie
TTITLE3=Thanks for the memories
TTITLE4=White lies
TTITLE5=The hardest part
TTITLE6=How many memories
TTITLE7=Honky tonk angels
TTITLE8=The eyes of a fool
TTITLE9=Paintin' rainbows
TTITLE10=I laid your memory to rest
TTITLE11=How good love went wrong
EXTD=
EXTT0=
EXTT1=
EXTT2=
EXTT3=
EXTT4=
EXTT5=
EXTT6=
EXTT7=
EXTT8=
EXTT9=
EXTT10=
EXTT11=
PLAYORDER=
